<svg id="visual" viewBox="0 0 960 540" width="960" height="540" xmlns="http://www.w3.org/2000/svg" xmlns:xlink="http://www.w3.org/1999/xlink" version="1.1"><rect x="0" y="0" width="960" height="540" fill="#060d29"></rect><defs><linearGradient id="grad1_0" x1="43.8%" y1="100%" x2="100%" y2="0%"><stop offset="14.444444444444446%" stop-color="#dc143e" stop-opacity="1"></stop><stop offset="85.55555555555554%" stop-color="#dc143e" stop-opacity="1"></stop></linearGradient></defs><defs><linearGradient id="grad1_1" x1="43.8%" y1="100%" x2="100%" y2="0%"><stop offset="14.444444444444446%" stop-color="#dc143e" stop-opacity="1"></stop><stop offset="85.55555555555554%" stop-color="#c2004f" stop-opacity="1"></stop></linearGradient></defs><defs><linearGradient id="grad1_2" x1="43.8%" y1="100%" x2="100%" y2="0%"><stop offset="14.444444444444446%" stop-color="#a30059" stop-opacity="1"></stop><stop offset="85.55555555555554%" stop-color="#c2004f" stop-opacity="1"></stop></linearGradient></defs><defs><linearGradient id="grad1_3" x1="43.8%" y1="100%" x2="100%" y2="0%"><stop offset="14.444444444444446%" stop-color="#a30059" stop-opacity="1"></stop><stop offset="85.55555555555554%" stop-color="#80105c" stop-opacity="1"></stop></linearGradient></defs><defs><linearGradient id="grad1_4" x1="43.8%" y1="100%" x2="100%" y2="0%"><stop offset="14.444444444444446%" stop-color="#5d1958" stop-opacity="1"></stop><stop offset="85.55555555555554%" stop-color="#80105c" stop-opacity="1"></stop></linearGradient></defs><defs><linearGradient id="grad1_5" x1="43.8%" y1="100%" x2="100%" y2="0%"><stop offset="14.444444444444446%" stop-color="#5d1958" stop-opacity="1"></stop><stop offset="85.55555555555554%" stop-color="#3b1a4e" stop-opacity="1"></stop></linearGradient></defs><defs><linearGradient id="grad1_6" x1="43.8%" y1="100%" x2="100%" y2="0%"><stop offset="14.444444444444446%" stop-color="#1d173d" stop-opacity="1"></stop><stop offset="85.55555555555554%" stop-color="#3b1a4e" stop-opacity="1"></stop></linearGradient></defs><defs><linearGradient id="grad1_7" x1="43.8%" y1="100%" x2="100%" y2="0%"><stop offset="14.444444444444446%" stop-color="#1d173d" stop-opacity="1"></stop><stop offset="85.55555555555554%" stop-color="#060d29" stop-opacity="1"></stop></linearGradient></defs><defs><linearGradient id="grad2_0" x1="0%" y1="100%" x2="56.3%" y2="0%"><stop offset="14.444444444444446%" stop-color="#dc143e" stop-opacity="1"></stop><stop offset="85.55555555555554%" stop-color="#dc143e" stop-opacity="1"></stop></linearGradient></defs><defs><linearGradient id="grad2_1" x1="0%" y1="100%" x2="56.3%" y2="0%"><stop offset="14.444444444444446%" stop-color="#c2004f" stop-opacity="1"></stop><stop offset="85.55555555555554%" stop-color="#dc143e" stop-opacity="1"></stop></linearGradient></defs><defs><linearGradient id="grad2_2" x1="0%" y1="100%" x2="56.3%" y2="0%"><stop offset="14.444444444444446%" stop-color="#c2004f" stop-opacity="1"></stop><stop offset="85.55555555555554%" stop-color="#a30059" stop-opacity="1"></stop></linearGradient></defs><defs><linearGradient id="grad2_3" x1="0%" y1="100%" x2="56.3%" y2="0%"><stop offset="14.444444444444446%" stop-color="#80105c" stop-opacity="1"></stop><stop offset="85.55555555555554%" stop-color="#a30059" stop-opacity="1"></stop></linearGradient></defs><defs><linearGradient id="grad2_4" x1="0%" y1="100%" x2="56.3%" y2="0%"><stop offset="14.444444444444446%" stop-color="#80105c" stop-opacity="1"></stop><stop offset="85.55555555555554%" stop-color="#5d1958" stop-opacity="1"></stop></linearGradient></defs><defs><linearGradient id="grad2_5" x1="0%" y1="100%" x2="56.3%" y2="0%"><stop offset="14.444444444444446%" stop-color="#3b1a4e" stop-opacity="1"></stop><stop offset="85.55555555555554%" stop-color="#5d1958" stop-opacity="1"></stop></linearGradient></defs><defs><linearGradient id="grad2_6" x1="0%" y1="100%" x2="56.3%" y2="0%"><stop offset="14.444444444444446%" stop-color="#3b1a4e" stop-opacity="1"></stop><stop offset="85.55555555555554%" stop-color="#1d173d" stop-opacity="1"></stop></linearGradient></defs><defs><linearGradient id="grad2_7" x1="0%" y1="100%" x2="56.3%" y2="0%"><stop offset="14.444444444444446%" stop-color="#060d29" stop-opacity="1"></stop><stop offset="85.55555555555554%" stop-color="#1d173d" stop-opacity="1"></stop></linearGradient></defs><g transform="translate(960, 540)"><path d="M-459 0C-417 -62.5 -375.1 -125.1 -342.1 -197.5C-309.1 -269.9 -285 -352.3 -229.5 -397.5C-174 -442.7 -87 -450.9 0 -459L0 0Z" fill="#101333"></path><path d="M-401.6 0C-364.9 -54.7 -328.2 -109.4 -299.3 -172.8C-270.4 -236.2 -249.4 -308.2 -200.8 -347.8C-152.2 -387.4 -76.1 -394.5 0 -401.6L0 0Z" fill="#2b1946"></path><path d="M-344.2 0C-312.8 -46.9 -281.3 -93.8 -256.6 -148.1C-231.8 -202.5 -213.8 -264.2 -172.1 -298.1C-130.5 -332.1 -65.2 -338.2 0 -344.2L0 0Z" fill="#4b1a54"></path><path d="M-286.9 0C-260.7 -39.1 -234.4 -78.2 -213.8 -123.4C-193.2 -168.7 -178.1 -220.2 -143.4 -248.4C-108.7 -276.7 -54.4 -281.8 0 -286.9L0 0Z" fill="#6e165b"></path><path d="M-229.5 0C-208.5 -31.3 -187.5 -62.5 -171 -98.8C-154.5 -135 -142.5 -176.1 -114.8 -198.8C-87 -221.4 -43.5 -225.4 0 -229.5L0 0Z" fill="#92085b"></path><path d="M-172.1 0C-156.4 -23.4 -140.7 -46.9 -128.3 -74.1C-115.9 -101.2 -106.9 -132.1 -86.1 -149.1C-65.2 -166 -32.6 -169.1 0 -172.1L0 0Z" fill="#b30055"></path><path d="M-114.7 0C-104.3 -15.6 -93.8 -31.3 -85.5 -49.4C-77.3 -67.5 -71.3 -88.1 -57.4 -99.4C-43.5 -110.7 -21.7 -112.7 0 -114.7L0 0Z" fill="#d00047"></path><path d="M-57.4 0C-52.1 -7.8 -46.9 -15.6 -42.8 -24.7C-38.6 -33.7 -35.6 -44 -28.7 -49.7C-21.7 -55.3 -10.9 -56.4 0 -57.4L0 0Z" fill="#dc143e"></path></g><g transform="translate(0, 0)"><path d="M459 0C440.6 76.1 422.2 152.3 386.2 223C350.3 293.7 296.8 359.1 229.5 397.5C162.2 435.9 81.1 447.5 0 459L0 0Z" fill="#101333"></path><path d="M401.6 0C385.5 66.6 369.4 133.2 338 195.1C306.5 257 259.7 314.2 200.8 347.8C141.9 381.4 71 391.5 0 401.6L0 0Z" fill="#2b1946"></path><path d="M344.3 0C330.4 57.1 316.6 114.2 289.7 167.2C262.7 220.3 222.6 269.3 172.1 298.1C121.7 327 60.8 335.6 0 344.3L0 0Z" fill="#4b1a54"></path><path d="M286.9 0C275.4 47.6 263.9 95.2 241.4 139.4C218.9 183.6 185.5 224.4 143.4 248.4C101.4 272.5 50.7 279.7 0 286.9L0 0Z" fill="#6e165b"></path><path d="M229.5 0C220.3 38.1 211.1 76.1 193.1 111.5C175.1 146.9 148.4 179.5 114.8 198.8C81.1 218 40.6 223.7 0 229.5L0 0Z" fill="#92085b"></path><path d="M172.1 0C165.2 28.5 158.3 57.1 144.8 83.6C131.4 110.2 111.3 134.7 86.1 149.1C60.8 163.5 30.4 167.8 0 172.1L0 0Z" fill="#b30055"></path><path d="M114.8 0C110.1 19 105.5 38.1 96.6 55.7C87.6 73.4 74.2 89.8 57.4 99.4C40.6 109 20.3 111.9 0 114.8L0 0Z" fill="#d00047"></path><path d="M57.4 0C55.1 9.5 52.8 19 48.3 27.9C43.8 36.7 37.1 44.9 28.7 49.7C20.3 54.5 10.1 55.9 0 57.4L0 0Z" fill="#dc143e"></path></g></svg>